<svg width="1019" height="169" fill="none" xmlns="http://www.w3.org/2000/svg"><path d="M30.885 156V16h60.6c12.533 0 23.333 2.067 32.4 6.2 9.067 4 16.067 9.8 21 17.4 4.934 7.6 7.4 16.667 7.4 27.2 0 10.4-2.466 19.4-7.4 27-4.933 7.6-11.933 13.467-21 17.6-9.067 4-19.867 6-32.4 6h-42.6l14.4-14.6V156h-32.4Zm32.4-49.6L48.885 91h40.8c10 0 17.467-2.133 22.4-6.4s7.4-10.2 7.4-17.8c0-7.733-2.467-13.733-7.4-18-4.933-4.267-12.4-6.4-22.4-6.4h-40.8l14.4-15.4v79.4ZM175.416 156V16h32.4v140h-32.4Zm94.625-32-1.8-37.4 67-70.6h36l-60.4 65-18 19.2-22.8 23.8Zm-29 32V16h32.2v140h-32.2Zm95.8 0-49.8-61 21.2-23 66.4 84h-37.8Zm52.247 0V16h32.4v140h-32.4Zm65.625 0V16h26.8l59.6 98.8h-14.2l58.6-98.8h26.6l.4 140h-30.4l-.2-93.4h5.6l-46.8 78.6h-14.6l-47.8-78.6h6.8V156h-30.4Zm220.816-83.6h67.4v25.2h-67.4V72.4Zm2.4 57.6h76.2v26h-108.4V16h105.8v26h-73.6v88Zm101.98 26V16h32.4v113.6h70.2V156h-102.6Zm120.703 0V16h32.4v113.6h70.198V156H900.612Z" fill="#2B2B2B"/></svg>