<svg width="1258" height="395" viewBox="0 0 899 282" fill="none" xmlns="http://www.w3.org/2000/svg">
<g clip-path="url(#clip0_4_9)">
<path d="M112.455 100.623V130.745H185.069C183.142 147.409 177.358 160.227 168.362 168.559C158.08 178.814 141.372 190.35 112.455 190.35C68.1158 190.35 33.4153 154.459 33.4153 110.236C33.4153 66.0136 67.4732 30.1227 112.455 30.1227C136.232 30.1227 154.224 39.7364 167.077 51.9136L188.282 30.7636C170.29 13.4591 145.871 0 112.455 0C51.4082 0 0 49.35 0 110.236C0 171.123 51.4082 220.473 112.455 220.473C145.228 220.473 170.29 209.577 189.568 189.709C209.488 169.841 215.914 141.641 215.914 119.209C215.914 112.159 215.272 105.75 214.629 100.623H112.455V100.623Z" fill="#4285F4"/>
<path d="M305.879 75.6273C266.68 75.6273 233.907 105.75 233.907 146.768C233.907 187.786 266.037 217.909 305.879 217.909C345.72 217.909 377.85 188.427 377.85 147.409C377.85 105.75 345.72 75.6273 305.879 75.6273ZM305.879 190.35C284.03 190.35 265.395 172.405 265.395 147.409C265.395 121.773 284.03 104.468 305.879 104.468C327.727 104.468 346.362 121.773 346.362 147.409C346.362 172.405 327.727 190.35 305.879 190.35Z" fill="#EA4335"/>
<path d="M657.382 91.65H656.097C649.028 83.3182 635.533 75.6273 618.183 75.6273C582.197 75.6273 551.352 106.391 551.352 146.768C551.352 186.505 582.197 217.909 618.183 217.909C635.533 217.909 649.028 210.218 656.097 201.886H657.382V212.141C657.382 239.059 642.602 253.8 619.468 253.8C600.19 253.8 588.623 240.341 583.483 228.164L556.493 239.7C564.204 258.286 585.41 282 620.111 282C656.739 282 688.227 260.209 688.227 207.655V79.4727H658.667V91.65H657.382ZM621.396 190.35C599.548 190.35 583.483 171.764 583.483 147.409C583.483 122.414 600.19 104.468 621.396 104.468C642.602 104.468 659.31 123.055 659.31 148.05C659.952 172.405 643.244 190.35 621.396 190.35Z" fill="#4285F4"/>
<path d="M465.886 75.6273C426.688 75.6273 393.915 105.75 393.915 146.768C393.915 187.786 426.045 217.909 465.886 217.909C505.728 217.909 537.858 188.427 537.858 147.409C537.858 105.75 505.728 75.6273 465.886 75.6273ZM465.886 190.35C444.038 190.35 425.402 172.405 425.402 147.409C425.402 121.773 444.038 104.468 465.886 104.468C487.735 104.468 506.37 121.773 506.37 147.409C506.37 172.405 487.735 190.35 465.886 190.35Z" fill="#FBBC05"/>
<path d="M712.003 3.20455H742.848V218.55H712.003V3.20455Z" fill="#34A853"/>
<path d="M837.953 190.35C821.888 190.35 810.964 183.3 803.252 168.559L899 129.464L895.787 121.132C890.004 105.109 871.368 75.6273 834.74 75.6273C798.112 75.6273 767.267 104.468 767.267 146.768C767.267 186.505 797.469 217.909 837.953 217.909C870.726 217.909 889.361 198.041 897.715 186.505L873.296 170.482C864.942 182.659 854.018 190.35 837.953 190.35ZM836.025 102.545C848.877 102.545 859.801 108.955 863.014 117.927L798.754 144.845C798.112 115.364 819.96 102.545 836.025 102.545Z" fill="#EA4335"/>
</g>
<defs>
<clipPath id="clip0_4_9">
<rect width="1258" height="395" fill="white"/>
</clipPath>
</defs>
</svg>
