<svg width="1019" height="169" viewBox="0 0 1019 169" fill="none" xmlns="http://www.w3.org/2000/svg">
<path d="M30.8852 156V16H91.4852C104.018 16 114.818 18.0667 123.885 22.2C132.952 26.2 139.952 32 144.885 39.6C149.819 47.2 152.285 56.2667 152.285 66.8C152.285 77.2 149.819 86.2 144.885 93.8C139.952 101.4 132.952 107.267 123.885 111.4C114.818 115.4 104.018 117.4 91.4852 117.4H48.8852L63.2852 102.8V156H30.8852ZM63.2852 106.4L48.8852 91H89.6852C99.6852 91 107.152 88.8667 112.085 84.6C117.018 80.3333 119.485 74.4 119.485 66.8C119.485 59.0667 117.018 53.0667 112.085 48.8C107.152 44.5333 99.6852 42.4 89.6852 42.4H48.8852L63.2852 27V106.4ZM175.416 156V16H207.816V156H175.416ZM270.041 124L268.241 86.6L335.241 16H371.241L310.841 81L292.841 100.2L270.041 124ZM241.041 156V16H273.241V156H241.041ZM336.841 156L287.041 95L308.241 72L374.641 156H336.841ZM389.088 156V16H421.488V156H389.088ZM454.713 156V16H481.513L541.113 114.8H526.913L585.513 16H612.113L612.513 156H582.113L581.913 62.6H587.513L540.713 141.2H526.113L478.313 62.6H485.113V156H454.713ZM675.529 72.4H742.929V97.6H675.529V72.4ZM677.929 130H754.129V156H645.729V16H751.529V42H677.929V130ZM779.909 156V16H812.309V129.6H882.509V156H779.909ZM900.612 156V16H933.012V129.6H1003.21V156H900.612Z" fill="#2B2B2B"/>
</svg>
